HIERARCHY
ROOT Hips
{
  OFFSET 0.382225 96.6805 0.598322
  CHANNELS 6 Xposition Yposition Zposition Zrotation Xrotation Yrotation
  JOINT Spine
  {
    OFFSET 10.8089 -0.851416 0
    CHANNELS 3 Zrotation Xrotation Yrotation
    JOINT Spine1
    {
      OFFSET 18.8753 3.80116 0
      CHANNELS 3 Zrotation Xrotation Yrotation
      JOINT Spine2
      {
        OFFSET 13.4073 0.420477 0
        CHANNELS 3 Zrotation Xrotation Yrotation
        JOINT LeftShoulder
        {
          OFFSET 11.8837 -2.73209 -3.78198
          CHANNELS 3 Zrotation Xrotation Yrotation
          JOINT LeftArm
          {
            OFFSET 15.7849 0 -2.35849e-005
            CHANNELS 3 Zrotation Xrotation Yrotation
            JOINT LeftForeArm
            {
              OFFSET 30.3399 0 0
              CHANNELS 3 Zrotation Xrotation Yrotation
              JOINT LeftHand
              {
                OFFSET 26.9751 0 2.45913e-005
                CHANNELS 3 Zrotation Xrotation Yrotation
                End Site
                {
                  OFFSET 8 0 0
                }
              }
            }
          }
        }
        JOINT RightShoulder
        {
          OFFSET 11.8838 -2.7321 3.782
          CHANNELS 3 Zrotation Xrotation Yrotation
          JOINT RightArm
          {
            OFFSET -15.7848 0 -1.07056e-005
            CHANNELS 3 Zrotation Xrotation Yrotation
            JOINT RightForeArm
            {
              OFFSET -30.34 1.02096e-005 -2.53607e-005
              CHANNELS 3 Zrotation Xrotation Yrotation
              JOINT RightHand
              {
                OFFSET -26.9752 2.07668e-005 0
                CHANNELS 3 Zrotation Xrotation Yrotation
                End Site
                {
                  OFFSET -8 0 0
                }
              }
            }
          }
        }
        JOINT Neck
        {
          OFFSET 16.5588 -0.355318 0
          CHANNELS 3 Zrotation Xrotation Yrotation
          JOINT Head
          {
            OFFSET 9.28361 0.364157 0
            CHANNELS 3 Zrotation Xrotation Yrotation
            End Site
            {
              OFFSET 0 0 0
            }
          }
        }
      }
    }
  }
  JOINT LeftUpLeg
  {
    OFFSET -1.44883 -0.531424 -9.00581
    CHANNELS 3 Zrotation Xrotation Yrotation
    JOINT LeftLeg
    {
      OFFSET -42.572 0.0788889 -0.011964
      CHANNELS 3 Zrotation Xrotation Yrotation
      JOINT LeftFoot
      {
        OFFSET -40.1967 0 0
        CHANNELS 3 Zrotation Xrotation Yrotation
				JOINT LeftToe
        {
          OFFSET -10.4538 -16.5779 0.0801563
          CHANNELS 3 Zrotation Xrotation Yrotation
          End Site
          {
            OFFSET -1.0 -1.0 0.0
          }
        }
      }
    }
  }
  JOINT RightUpLeg
  {
    OFFSET -1.44865 -0.531427 9.0058
    CHANNELS 3 Zrotation Xrotation Yrotation
    JOINT RightLeg
    {
      OFFSET 42.5723 -3.24776e-005 0
      CHANNELS 3 Zrotation Xrotation Yrotation
      JOINT RightFoot
      {
        OFFSET 40.1968 0 -1.14003e-005
        CHANNELS 3 Zrotation Xrotation Yrotation
				JOINT RightToe
        {
          OFFSET 10.4538 16.5778 -0.0801573
          CHANNELS 3 Zrotation Xrotation Yrotation
          End Site
          {
            OFFSET -1.0 -1.0 0.0
          }
        }
      }
    }
  }
}
MOTION
Frames:	13
Frame Time:	0.0333333
-183.196 79.584 13.8744 95.3584 -34.4405 -2.04344 -30.4224 6.84188 7.11506 13.394 0.0322993 0.0647176 2.7794 1.93418e-006 1.65929e-005 -5.11577 20.457 93.1723 -45.6319 35.5752 90.5366 -60.6789 0.62329 -16.8264 -147.462 -79.1884 -136.249 -179.426 5.68183 87.4669 -33.4726 -6.17118 48.6366 -96.7444 -8.23357 -7.63257 45.0721 -69.379 60.3091 -23.508 4.63459e-006 -5.90926e-006 23.2382 -14.7093 11.4633 49.0679 16.5675 -38.7826 -89.779 0.000692774 -4.16642 -6.39987 11.9284 4.64504 -90 0 0 -166.966 23.4178 -31.1919 -34.0135 -7.43287 -2.28217 -16.2948 3.67371 -146.168 -90 0 0
-185.887 80.8676 11.1111 94.0945 -36.2426 -2.2269 -28.2148 4.15027 6.6216 13.8247 0.0116025 0.0230415 2.7794 1.93418e-006 1.65929e-005 -4.73241 19.1306 92.519 -39.6721 39.6765 86.5061 -60.2222 0.406439 -16.7134 -154.174 -78.2723 -143.319 -178.73 5.74398 83.3912 -29.3907 -2.47468 42.0813 -95.1141 -8.31579 -7.50875 49.8805 -74.4138 66.4051 -23.508 4.63459e-006 -5.90926e-006 25.8802 -20.3494 10.4204 36.2325 18.018 -37.5196 -86.5608 -0.315907 -4.13808 -9.9541 12.1852 4.38381 -90 0 0 -164.187 21.8609 -30.1965 -31.9673 -7.38458 -2.05837 -20.2838 2.62539 -147.674 -90 0 0
-188.277 81.5866 8.34442 91.7945 -37.3578 -2.44163 -24.5628 1.90008 5.02758 14.1101 -0.00227093 -0.00449228 2.7794 1.93418e-006 1.65929e-005 -3.98981 17.6389 89.9391 -34.3377 41.9821 84.2245 -59.5142 0.0725498 -16.535 -156.017 -76.7653 -145.57 -178.183 5.93266 80.3665 -23.7026 1.10047 35.8826 -92.9725 -8.42108 -7.34367 50.7928 -76.9834 68.0657 -23.508 4.63459e-006 -5.90926e-006 25.7952 -14.1858 6.34012 24.6683 20.9718 -35.6014 -78.39 -1.18729 -3.98895 -15.029 11.334 3.98906 -90 0 0 -160.499 21.7734 -29.266 -30.2018 -7.06818 -1.86391 -23.5211 0.0672631 -148.847 -90 0 0
-190.622 81.9037 5.51852 89.9727 -36.6794 -2.21668 -21.749 -1.50217 2.70766 14.3446 -0.0137805 -0.0270651 2.7794 1.93418e-006 1.65929e-005 -3.54324 17.786 87.5727 -29.8144 42.2607 79.964 -60.0665 0.332818 -16.6745 -159.718 -77.5215 -149.212 -177.842 6.56917 78.5048 -18.6656 3.53124 31.3504 -89.0671 -8.59427 -7.03184 41.722 -79.8508 58.2048 -23.508 4.63459e-006 -5.90926e-006 26.3105 -10.8071 6.34231 15.1031 24.7713 -33.8445 -66.7634 -2.41799 -3.54295 -17.062 7.62385 4.36105 -90 0 0 -157.225 23.0499 -28.687 -28.8931 -6.71754 -1.71825 -26.3535 -1.72424 -149.464 -90 0 0
-193.281 81.8578 2.49635 88.6469 -34.8844 -2.13956 -20.6515 -5.16738 1.49577 14.8646 -0.0396312 -0.0769345 2.7794 1.93418e-006 1.65929e-005 -3.2801 18.1736 86.1383 -25.3618 40.7503 73.3552 -61.5019 1.01674 -17.0259 -163.539 -77.0262 -151.952 -177.818 7.70452 78.2005 -13.5883 5.04195 30.4059 -87.1153 -8.67287 -6.87179 10.1652 -76.6852 25.8339 -23.508 4.63459e-006 -5.90926e-006 27.1843 -11.3315 6.88219 10.4244 28.4331 -34.5544 -60.3981 -3.11654 -3.18277 -4.88774 7.93294 10.0766 -90 0 0 -153.937 23.1482 -28.4398 -29.3124 -6.25492 -1.76094 -28.8006 -1.09904 -148.255 -90 0 0
-196.577 81.2885 -0.899097 86.8558 -31.9935 -2.9956 -20.6154 -8.48299 1.57476 15.6175 -0.0778474 -0.148734 2.7794 1.93418e-006 1.65929e-005 -3.06662 17.8311 85.1781 -22.0911 36.4205 66.2706 -61.7907 1.1556 -17.0946 -163.685 -74.4595 -150.806 -178.382 8.96962 80.2867 -6.31975 6.83173 30.9352 -90.8958 -8.51578 -7.17922 5.90456 -76.9881 20.6599 -23.508 4.63459e-006 -5.90926e-006 29.2082 -12.1361 5.38963 8.06118 33.5702 -34.9847 -52.2347 -3.98015 -2.57471 11.7882 4.1248 17.1293 -90 0 0 -149.46 21.209 -28.8102 -31.9068 -5.94932 -2.05166 -30.3759 5.73724 -147.699 -90 0 0
-200.594 80.2381 -4.17259 84.5036 -28.9859 -4.6801 -20.9641 -10.699 3.11947 16.1594 -0.105957 -0.200102 2.7794 1.93418e-006 1.65929e-005 -2.82145 17.2274 84.0478 -21.5661 29.292 60.3292 -58.7541 -0.282863 -16.3393 -159.656 -70.0539 -145.005 -179.342 10.8433 83.3041 -0.690161 10.6694 35.0125 -97.3042 -8.20454 -7.67444 -8.50548 -82.7218 6.6525 -23.508 4.63459e-006 -5.90926e-006 33.2032 -14.1136 2.9341 12.0364 40.4191 -38.1135 -44.7995 -4.77319 -1.90729 22.0399 -3.45646 25.6847 -90 0 0 -144.666 15.8592 -28.6196 -37.0162 -4.91178 -2.61912 -31.5354 11.6908 -150.939 -90 0 0
-204.639 79.3588 -6.70035 83.0193 -26.8405 -6.85424 -21.6576 -12.4452 6.72043 16.5469 -0.126342 -0.236678 2.7794 1.93418e-006 1.65929e-005 -2.80941 15.5147 84.1702 -22.6731 24.3724 54.7303 -52.9698 -2.87795 -14.7102 -154.604 -66.5226 -140.971 179.384 12.1175 87.2278 0.838565 16.8702 43.4805 -101.987 -7.94329 -8.01274 -17.5624 -85.8817 -1.78269 -23.508 4.63459e-006 -5.90926e-006 36.2298 -17.1875 0.942451 14.8552 43.9157 -39.1486 -38.8199 -5.31582 -1.33175 26.7375 -12.1605 34.3013 -90 0 0 -139.476 11.3289 -28.1546 -43.3089 -2.96671 -3.29146 -34.5902 9.46063 -151.729 -90 0 0
-208.221 78.989 -8.27483 82.5825 -25.9534 -7.9048 -23.0603 -13.8295 9.63811 16.2899 -0.112787 -0.212432 2.7794 1.93418e-006 1.65929e-005 -2.76873 12.9753 84.1776 -27.3703 24.8772 54.9787 -49.644 -4.27459 -13.6685 -156.958 -62.2447 -148.323 178.881 12.9652 88.3677 -3.65594 22.2421 58.8521 -100.966 -8.00249 -7.94078 36.3393 -79.8394 50.9318 -23.508 4.63459e-006 -5.90926e-006 39.8451 -20.0607 -0.356986 15.9318 44.5664 -38.2434 -36.2481 -5.47971 -1.06478 30.0294 -14.2283 36.2267 -90 0 0 -137.185 8.80566 -26.1059 -43.6219 -3.04868 -3.32392 -39.0663 15.8039 -148.388 -90 0 0
-211.061 79.8737 -9.13745 82.8416 -26.8349 -6.79701 -25.0689 -14.9024 9.75607 15.4012 -0.0667845 -0.128164 2.7794 1.93418e-006 1.65929e-005 -2.58826 11.8673 82.598 -36.8641 24.6133 66.551 -53.9022 -2.47337 -14.989 -162.042 -64.4323 -152.538 179.174 13.162 87.2202 -12.2627 22.6906 74.4701 -95.6431 -8.29046 -7.54951 32.8517 -63.9402 42.9872 -23.508 4.63459e-006 -5.90926e-006 43.0716 -20.0945 -2.13876 18.8872 43.8575 -39.6672 -37.4716 -5.38395 -1.19417 29.2856 -12.4619 34.8844 -90 0 0 -137.083 8.16739 -23.7218 -41.6774 -3.37224 -3.11759 -43.8306 12.7364 -144.07 -90 0 0
-213.474 81.742 -9.35197 82.7723 -26.5724 -4.3349 -26.9712 -15.6254 7.54667 15.01 -0.0469377 -0.0908493 2.7794 1.93418e-006 1.65929e-005 -2.48446 11.5937 81.5463 -54.547 16.8404 80.1249 -59.2668 -0.0434445 -16.4718 -166.139 -68.2007 -156.329 179.874 11.0868 86.14 -20.7641 23.7539 82.9161 -92.8885 -8.42496 -7.33696 22.5123 -52.9898 31.8729 -23.508 4.63459e-006 -5.90926e-006 42.024 -21.1236 -4.3424 22.1936 33.439 -38.9611 -46.9609 -4.6338 -2.12293 25.1448 -5.19095 28.8537 -90 0 0 -136.818 12.2601 -23.7204 -38.7055 -3.42954 -2.79339 -46.2519 2.60998 -149.087 -90 0 0
-216.145 84.0554 -9.29924 82.422 -24.8896 -2.77464 -29.2436 -14.1131 6.30788 14.8047 -0.0366258 -0.0711958 2.7794 1.93418e-006 1.65929e-005 -2.61811 8.3341 81.7167 -71.2798 1.80067 82.6369 -63.3567 1.91585 -17.4557 -166.981 -74.8087 -153.878 -179.482 10.0726 84.2623 -23.1292 24.9995 85.3853 -97.2912 -8.20521 -7.67351 37.7007 -45.4513 44.1207 -23.508 4.63459e-006 -5.90926e-006 40.2117 -24.2213 -6.27826 31.1556 17.4558 -37.5812 -64.3394 -2.93193 -3.42463 8.35173 2.8579 21.6625 -90 0 0 -137.441 14.568 -25.7194 -35.0329 -3.40004 -2.37665 -53.3039 -10.0097 -160.718 -90 0 0
-218.956 85.4492 -9.30765 82.487 -21.5833 -2.60828 -32.1876 -13.411 6.33196 15.1164 -0.0523164 -0.101011 2.7794 1.93418e-006 1.65929e-005 -2.78151 3.54124 83.1772 -84.3656 -12.3208 74.9906 -68 4.23454 -18.4078 -151.737 -76.288 -137.034 -179.345 9.48784 84.0422 -14.3868 24.9512 78.6411 -106.96 -7.6364 -8.34696 59.8411 -46.8443 64.5693 -23.508 4.63459e-006 -5.90926e-006 39.0352 -28.0166 -8.87755 42.7616 5.27381 -33.2652 -73.2159 -1.88417 -3.8287 -11.6482 -0.754023 14.026 -90 0 0 -142.369 11.3637 -28.6305 -31.5012 -3.79115 -1.96802 -59.7272 -10.223 -165.428 -90 0 0
